<svg width="170" height="50" viewBox="0 0 170 50" fill="none" xmlns="http://www.w3.org/2000/svg">
<rect width="50" height="50" rx="3" fill="#F6DC60"/>
<path d="M12 10H10V12.5L15 18L14 36L16 38L23 26L28 31.5V37L29 39H31L32 35L35.5 36L34.5 33H39V31.5L37.5 30H30.5L25 24L40 19L36.5 16H18L12 10Z" fill="black"/>
<path d="M68.2031 13.25V36H63.5156V13.25H68.2031ZM77.2656 22.9688V26.625H66.9219V22.9688H77.2656ZM78.3594 13.25V16.9219H66.9219V13.25H78.3594ZM95.7031 32.3438V36H84.25V32.3438H95.7031ZM85.7656 13.25V36H81.0781V13.25H85.7656ZM103.375 13.25V36H98.7031V13.25H103.375ZM125.797 24.1094V33.125C125.443 33.5521 124.896 34.0156 124.156 34.5156C123.417 35.0052 122.464 35.4271 121.297 35.7812C120.13 36.1354 118.719 36.3125 117.062 36.3125C115.594 36.3125 114.255 36.0729 113.047 35.5938C111.839 35.1042 110.797 34.3906 109.922 33.4531C109.057 32.5156 108.391 31.3698 107.922 30.0156C107.453 28.651 107.219 27.0938 107.219 25.3438V23.9219C107.219 22.1719 107.443 20.6146 107.891 19.25C108.349 17.8854 109 16.7344 109.844 15.7969C110.688 14.8594 111.693 14.1458 112.859 13.6562C114.026 13.1667 115.323 12.9219 116.75 12.9219C118.729 12.9219 120.354 13.2448 121.625 13.8906C122.896 14.526 123.865 15.4115 124.531 16.5469C125.208 17.6719 125.625 18.9635 125.781 20.4219H121.234C121.12 19.651 120.901 18.9792 120.578 18.4062C120.255 17.8333 119.792 17.3854 119.188 17.0625C118.594 16.7396 117.823 16.5781 116.875 16.5781C116.094 16.5781 115.396 16.7396 114.781 17.0625C114.177 17.375 113.667 17.8385 113.25 18.4531C112.833 19.0677 112.516 19.8281 112.297 20.7344C112.078 21.6406 111.969 22.6927 111.969 23.8906V25.3438C111.969 26.5312 112.083 27.5833 112.312 28.5C112.542 29.4062 112.88 30.1719 113.328 30.7969C113.786 31.4115 114.349 31.875 115.016 32.1875C115.682 32.5 116.458 32.6562 117.344 32.6562C118.083 32.6562 118.698 32.5938 119.188 32.4688C119.688 32.3438 120.089 32.1927 120.391 32.0156C120.703 31.8281 120.943 31.651 121.109 31.4844V27.4531H116.828V24.1094H125.797ZM144.75 22.5156V26.1719H132.875V22.5156H144.75ZM134.266 13.25V36H129.578V13.25H134.266ZM148.094 13.25V36H143.422V13.25H148.094ZM161.875 13.25V36H157.203V13.25H161.875ZM168.875 13.25V16.9219H150.312V13.25H168.875Z" fill="white"/>
</svg>
