<svg width="35" height="23" viewBox="0 0 35 23" fill="none" xmlns="http://www.w3.org/2000/svg">
<path d="M10.1807 0C11.1904 0 12.1243 0.0790059 12.9775 0.312864C13.8324 0.469295 14.5324 0.782159 15.1533 1.17245C15.7759 1.56432 16.242 2.11104 16.5518 2.81419C16.863 3.51735 17.0195 4.37851 17.0195 5.31552C17.0195 6.41054 16.7856 7.34756 16.242 8.05071C15.7759 8.75544 14.9985 9.37959 14.0662 9.84889C15.3872 10.2408 16.3969 10.9439 17.0195 11.8825C17.6405 12.8195 18.0292 13.992 18.0292 15.3208C18.0292 16.4159 17.7953 17.3529 17.4066 18.135C17.0195 18.9172 16.3969 19.6203 15.6969 20.0896C14.9365 20.5926 14.096 20.9624 13.2114 21.1831C12.2791 21.4185 11.3468 21.575 10.4146 21.575H0V0H10.1807ZM9.55814 8.75386C10.413 8.75386 11.113 8.52001 11.6565 8.12971C12.2001 7.73943 12.434 7.03469 12.434 6.17511C12.434 5.70581 12.355 5.2381 12.2001 4.92523C12.0453 4.61237 11.8114 4.37693 11.5017 4.14307C11.1904 3.98664 10.8791 3.83021 10.4904 3.75278C10.1017 3.67378 9.71457 3.67378 9.24686 3.67378H4.74036V8.75544H9.55972L9.55814 8.75386ZM9.792 17.9786C10.2581 17.9786 10.7243 17.8996 11.113 17.8222C11.5017 17.7432 11.8904 17.5883 12.2001 17.3529C12.5167 17.1241 12.7816 16.8312 12.9775 16.4933C13.1324 16.103 13.2888 15.6337 13.2888 15.087C13.2888 13.992 12.9775 13.2098 12.3565 12.6631C11.734 12.1938 10.8791 11.9599 9.86943 11.9599H4.74036V17.9802L9.792 17.9786ZM24.7905 17.8996C25.4115 18.5253 26.3438 18.8382 27.5873 18.8382C28.4422 18.8382 29.2196 18.6043 29.8406 18.214C30.4631 17.7447 30.8518 17.2754 31.0067 16.8077H34.8148C34.1922 18.6818 33.2599 20.0106 32.018 20.8718C30.7728 21.6524 29.297 22.1217 27.5099 22.1217C26.3664 22.1252 25.2326 21.9129 24.1679 21.4959C23.2099 21.1367 22.3555 20.5461 21.6808 19.7768C20.9592 19.0571 20.4257 18.171 20.1276 17.1964C19.7389 16.1804 19.5824 15.087 19.5824 13.8355C19.5824 12.6631 19.7389 11.5696 20.1276 10.552C20.5019 9.57294 21.0555 8.67218 21.7598 7.89586C22.4695 7.16718 23.3135 6.58284 24.2454 6.17511C25.283 5.75805 26.3915 5.54558 27.5099 5.54938C28.8309 5.54938 29.997 5.78482 31.0067 6.33154C32.018 6.87826 32.7938 7.50399 33.4148 8.44258C34.0374 9.30216 34.5051 10.3182 34.8148 11.4132C34.9696 12.5066 35.0471 13.6017 34.9696 14.8515H23.7018C23.7018 16.103 24.1679 17.2754 24.7905 17.9012V17.8996ZM29.6857 9.69245C29.1421 9.14573 28.2873 8.83287 27.276 8.83287C26.5776 8.83287 26.0325 8.99088 25.5663 9.22474C25.1002 9.4586 24.7905 9.77146 24.4792 10.0843C24.1927 10.3864 24.0028 10.7671 23.9341 11.1778C23.8566 11.5696 23.7792 11.8825 23.7792 12.1938H30.7728C30.618 11.0213 30.2293 10.2408 29.6857 9.69245ZM22.8469 1.48531H31.5502V3.59635H22.8485V1.48531H22.8469Z" fill="white"/>
</svg>
