<svg width="60" height="60" viewBox="0 0 60 60" fill="none" xmlns="http://www.w3.org/2000/svg">
<path d="M11.2499 17.1123V1.875H7.49989V17.1123C5.88989 17.5282 4.46371 18.4672 3.4455 19.7818C2.42728 21.0965 1.87476 22.7122 1.87476 24.375C1.87476 26.0378 2.42728 27.6535 3.4455 28.9682C4.46371 30.2828 5.88989 31.2218 7.49989 31.6377V58.125H11.2499V31.6377C12.8599 31.2218 14.2861 30.2828 15.3043 28.9682C16.3225 27.6535 16.875 26.0378 16.875 24.375C16.875 22.7122 16.3225 21.0965 15.3043 19.7818C14.2861 18.4672 12.8599 17.5282 11.2499 17.1123ZM9.37489 28.125C8.63321 28.125 7.90819 27.9051 7.2915 27.493C6.67482 27.081 6.19417 26.4953 5.91034 25.8101C5.62651 25.1248 5.55225 24.3708 5.69695 23.6434C5.84164 22.916 6.19879 22.2478 6.72324 21.7234C7.24769 21.1989 7.91587 20.8417 8.6433 20.6971C9.37073 20.5524 10.1247 20.6266 10.81 20.9105C11.4952 21.1943 12.0808 21.6749 12.4929 22.2916C12.905 22.9083 13.1249 23.6333 13.1249 24.375C13.1238 25.3692 12.7283 26.3224 12.0253 27.0254C11.3223 27.7284 10.3691 28.1239 9.37489 28.125ZM31.8749 33.9873V1.875H28.1249V33.9873C26.5149 34.4032 25.0887 35.3422 24.0705 36.6568C23.0523 37.9715 22.4998 39.5872 22.4998 41.25C22.4998 42.9128 23.0523 44.5285 24.0705 45.8432C25.0887 47.1578 26.5149 48.0968 28.1249 48.5127V58.125H31.8749V48.5127C33.4849 48.0968 34.9111 47.1578 35.9293 45.8432C36.9475 44.5285 37.5 42.9128 37.5 41.25C37.5 39.5872 36.9475 37.9715 35.9293 36.6568C34.9111 35.3422 33.4849 34.4032 31.8749 33.9873ZM29.9999 45C29.2582 45 28.5332 44.7801 27.9165 44.368C27.2998 43.956 26.8192 43.3703 26.5353 42.6851C26.2515 41.9998 26.1772 41.2458 26.3219 40.5184C26.4666 39.791 26.8238 39.1228 27.3482 38.5984C27.8727 38.0739 28.5409 37.7168 29.2683 37.5721C29.9957 37.4274 30.7497 37.5016 31.435 37.7854C32.1202 38.0693 32.7058 38.5499 33.1179 39.1666C33.53 39.7833 33.7499 40.5083 33.7499 41.25C33.7488 42.2442 33.3533 43.1974 32.6503 43.9004C31.9473 44.6034 30.9941 44.9989 29.9999 45ZM52.4999 9.6123V1.875H48.7499V9.6123C47.1399 10.0282 45.7137 10.9672 44.6955 12.2818C43.6773 13.5965 43.1248 15.2122 43.1248 16.875C43.1248 18.5378 43.6773 20.1535 44.6955 21.4682C45.7137 22.7828 47.1399 23.7218 48.7499 24.1377V58.125H52.4999V24.1377C54.1099 23.7218 55.5361 22.7828 56.5543 21.4682C57.5725 20.1535 58.125 18.5378 58.125 16.875C58.125 15.2122 57.5725 13.5965 56.5543 12.2818C55.5361 10.9672 54.1099 10.0282 52.4999 9.6123ZM50.6249 20.625C49.8832 20.625 49.1582 20.4051 48.5415 19.993C47.9248 19.581 47.4442 18.9953 47.1603 18.3101C46.8765 17.6248 46.8022 16.8708 46.9469 16.1434C47.0916 15.416 47.4488 14.7478 47.9732 14.2233C48.4977 13.6989 49.1659 13.3417 49.8933 13.1971C50.6207 13.0524 51.3747 13.1266 52.06 13.4105C52.7452 13.6943 53.3308 14.1749 53.7429 14.7916C54.155 15.4083 54.3749 16.1333 54.3749 16.875C54.3738 17.8692 53.9783 18.8224 53.2753 19.5254C52.5723 20.2284 51.6191 20.6239 50.6249 20.625Z" fill="white"/>
</svg>
