<svg width="22" height="22" viewBox="0 0 22 22" fill="none" xmlns="http://www.w3.org/2000/svg">
<path d="M11.2389 4.35194C11.1749 4.29075 11.0898 4.25659 11.0013 4.25659C10.9128 4.25659 10.8276 4.29075 10.7637 4.35194L2.85312 11.9089C2.81952 11.941 2.7928 11.9796 2.77455 12.0224C2.75631 12.0651 2.74693 12.1112 2.74699 12.1576L2.7457 19.2501C2.7457 19.6147 2.89056 19.9645 3.14843 20.2223C3.40629 20.4802 3.75602 20.6251 4.1207 20.6251H8.24999C8.43233 20.6251 8.6072 20.5526 8.73613 20.4237C8.86506 20.2948 8.93749 20.1199 8.93749 19.9376V14.0938C8.93749 14.0026 8.97371 13.9152 9.03818 13.8507C9.10264 13.7863 9.19008 13.7501 9.28124 13.7501H12.7187C12.8099 13.7501 12.8973 13.7863 12.9618 13.8507C13.0263 13.9152 13.0625 14.0026 13.0625 14.0938V19.9376C13.0625 20.1199 13.1349 20.2948 13.2639 20.4237C13.3928 20.5526 13.5677 20.6251 13.75 20.6251H17.8776C18.2422 20.6251 18.592 20.4802 18.8498 20.2223C19.1077 19.9645 19.2526 19.6147 19.2526 19.2501V12.1576C19.2526 12.1112 19.2432 12.0651 19.225 12.0224C19.2068 11.9796 19.18 11.941 19.1464 11.9089L11.2389 4.35194Z" fill="black"/>
<path d="M21.0938 10.4908L17.8797 7.41598V2.75C17.8797 2.56766 17.8073 2.3928 17.6784 2.26386C17.5494 2.13493 17.3746 2.0625 17.1922 2.0625H15.1297C14.9474 2.0625 14.7725 2.13493 14.6436 2.26386C14.5147 2.3928 14.4422 2.56766 14.4422 2.75V4.125L11.9535 1.74539C11.7206 1.50992 11.3743 1.375 11 1.375C10.627 1.375 10.2816 1.50992 10.0487 1.74582L0.90922 10.49C0.641954 10.7478 0.608439 11.1719 0.851642 11.4512C0.912714 11.5217 0.987492 11.579 1.07143 11.6197C1.15536 11.6604 1.24669 11.6835 1.33987 11.6878C1.43305 11.6921 1.52611 11.6773 1.61341 11.6445C1.70071 11.6116 1.78041 11.5613 1.84766 11.4967L10.7637 2.97687C10.8276 2.91568 10.9128 2.88152 11.0013 2.88152C11.0898 2.88152 11.1749 2.91568 11.2389 2.97687L20.1558 11.4967C20.2871 11.6227 20.4631 11.6914 20.645 11.6879C20.827 11.6843 21.0001 11.6088 21.1264 11.4778C21.3903 11.2045 21.3684 10.7534 21.0938 10.4908Z" fill="black"/>
</svg>
