<svg width="60" height="60" viewBox="0 0 60 60" fill="none" xmlns="http://www.w3.org/2000/svg">
<path d="M29.6006 58.125H30.3994C33.7548 58.1212 36.9718 56.7866 39.3445 54.4139C41.7172 52.0412 43.0518 48.8242 43.0556 45.4688V38.9423C45.4852 36.9918 47.4456 34.5202 48.7918 31.7103C50.138 28.9004 50.8357 25.824 50.8334 22.7082C50.8334 11.2208 41.4875 1.875 30 1.875C18.5125 1.875 9.16663 11.2208 9.16663 22.7082C9.16427 25.824 9.86198 28.9005 11.2082 31.7104C12.5545 34.5203 14.5148 36.9918 16.9445 38.9423V45.4688C16.9482 48.8242 18.2828 52.0412 20.6555 54.4139C23.0282 56.7866 26.2451 58.1212 29.6006 58.125ZM30.3994 54.375H29.6006C27.8166 54.3728 26.0743 53.8356 24.5988 52.8328C23.1233 51.8301 21.9824 50.4079 21.3235 48.75H38.6766C38.0177 50.4079 36.8768 51.8301 35.4013 52.8328C33.9257 53.8356 32.1834 54.3728 30.3994 54.375ZM39.3056 45H20.6945V40.3125H39.3056V45ZM12.9166 22.7082C12.9166 13.2891 20.5802 5.625 30 5.625C39.4198 5.625 47.0834 13.2891 47.0834 22.7082C47.0776 25.3964 46.4403 28.0456 45.2227 30.4422C44.005 32.8389 42.2413 34.9158 40.0735 36.5055L39.9961 36.5625H20.0039L19.926 36.5055C17.7584 34.9157 15.9947 32.8388 14.7771 30.4422C13.5596 28.0456 12.9223 25.3964 12.9166 22.7082Z" fill="white"/>
</svg>
