<svg width="50" height="50" viewBox="0 0 50 50" fill="none" xmlns="http://www.w3.org/2000/svg">
<path d="M20.752 44.6045C20.9798 45.0928 21.0938 45.5892 21.0938 46.0938C21.0938 46.6309 20.9961 47.1354 20.8008 47.6074C20.6055 48.0794 20.3206 48.4945 19.9463 48.8525C19.5719 49.2106 19.1569 49.4873 18.7012 49.6826C18.2454 49.8779 17.7409 49.9837 17.1875 50C16.6504 50 16.1458 49.9023 15.6738 49.707C15.2018 49.5117 14.7868 49.2269 14.4287 48.8525C14.0706 48.4782 13.7939 48.0632 13.5986 47.6074C13.4033 47.1517 13.2975 46.6471 13.2812 46.0938C13.2812 45.5892 13.3952 45.0928 13.623 44.6045L17.1875 37.5L20.752 44.6045ZM39.502 44.6045C39.7298 45.0928 39.8438 45.5892 39.8438 46.0938C39.8438 46.6309 39.7461 47.1354 39.5508 47.6074C39.3555 48.0794 39.0706 48.4945 38.6963 48.8525C38.3219 49.2106 37.9069 49.4873 37.4512 49.6826C36.9954 49.8779 36.4909 49.9837 35.9375 50C35.4004 50 34.8958 49.9023 34.4238 49.707C33.9518 49.5117 33.5368 49.2269 33.1787 48.8525C32.8206 48.4782 32.5439 48.0632 32.3486 47.6074C32.1533 47.1517 32.0475 46.6471 32.0312 46.0938C32.0312 45.5892 32.1452 45.0928 32.373 44.6045L35.9375 37.5L39.502 44.6045ZM30.127 38.3545C30.3548 38.8428 30.4688 39.3392 30.4688 39.8438C30.4688 40.3809 30.3711 40.8854 30.1758 41.3574C29.9805 41.8294 29.6956 42.2445 29.3213 42.6025C28.9469 42.9606 28.5319 43.2373 28.0762 43.4326C27.6204 43.6279 27.1159 43.7337 26.5625 43.75C26.0254 43.75 25.5208 43.6523 25.0488 43.457C24.5768 43.2617 24.1618 42.9769 23.8037 42.6025C23.4456 42.2282 23.1689 41.8132 22.9736 41.3574C22.7783 40.9017 22.6725 40.3971 22.6562 39.8438C22.6562 39.3392 22.7702 38.8428 22.998 38.3545L26.5625 31.25L30.127 38.3545ZM42.9932 25.293C44.0186 25.5697 44.9544 25.9928 45.8008 26.5625C46.6471 27.1322 47.3877 27.8239 48.0225 28.6377C48.6572 29.4515 49.1455 30.3385 49.4873 31.2988C49.8291 32.2591 50 33.2845 50 34.375C50 35.4492 49.821 36.4746 49.4629 37.4512C49.1048 38.4277 48.6084 39.3229 47.9736 40.1367C47.3389 40.9505 46.582 41.6423 45.7031 42.2119C44.8242 42.7816 43.8639 43.1966 42.8223 43.457L41.3574 40.5273C42.1387 40.4297 42.863 40.21 43.5303 39.8682C44.1976 39.5264 44.7835 39.0706 45.2881 38.501C45.7926 37.9313 46.1751 37.3047 46.4355 36.6211C46.696 35.9375 46.8424 35.1888 46.875 34.375C46.875 33.4798 46.7122 32.6497 46.3867 31.8848C46.0612 31.1198 45.5973 30.4606 44.9951 29.9072C44.3929 29.3538 43.7093 28.9225 42.9443 28.6133C42.1794 28.304 41.3493 28.1413 40.4541 28.125C40.2588 26.7904 39.8438 25.5534 39.209 24.4141C38.5742 23.2747 37.7848 22.2819 36.8408 21.4355C35.8968 20.5892 34.8063 19.93 33.5693 19.458C32.3324 18.986 31.0384 18.75 29.6875 18.75C28.4342 18.75 27.2461 18.9535 26.123 19.3604C25 19.7673 23.9665 20.3288 23.0225 21.0449C22.0785 21.7611 21.2809 22.6237 20.6299 23.6328C19.9788 24.6419 19.4824 25.7406 19.1406 26.9287C18.4245 26.3102 17.6351 25.8382 16.7725 25.5127C15.9098 25.1872 15.0065 25.0163 14.0625 25C12.9883 25 11.9792 25.2035 11.0352 25.6104C10.0911 26.0173 9.26107 26.5706 8.54492 27.2705C7.82878 27.9704 7.26725 28.8005 6.86035 29.7607C6.45345 30.721 6.25 31.7383 6.25 32.8125C6.25 33.6751 6.38835 34.5052 6.66504 35.3027C6.94173 36.1003 7.32422 36.8245 7.8125 37.4756C8.30078 38.1266 8.89486 38.6963 9.59473 39.1846C10.2946 39.6729 11.0596 40.0391 11.8896 40.2832L10.498 43.0664C9.40755 42.6921 8.41471 42.1631 7.51953 41.4795C6.62435 40.7959 5.8431 40.0065 5.17578 39.1113C4.50846 38.2161 4.00391 37.2396 3.66211 36.1816C3.32031 35.1237 3.14128 34.0007 3.125 32.8125C3.125 31.2988 3.40983 29.8828 3.97949 28.5645C4.54915 27.2461 5.3304 26.0905 6.32324 25.0977C7.31608 24.1048 8.47168 23.3236 9.79004 22.7539C11.1084 22.1842 12.5326 21.8913 14.0625 21.875C15.2669 21.875 16.4632 22.0785 17.6514 22.4854C18.2861 21.4274 19.0348 20.4753 19.8975 19.6289C20.7601 18.7826 21.7122 18.0664 22.7539 17.4805C23.7956 16.8945 24.9023 16.4388 26.0742 16.1133C27.2461 15.7878 28.4505 15.625 29.6875 15.625C31.2012 15.625 32.6497 15.861 34.0332 16.333C35.4167 16.805 36.7025 17.4642 37.8906 18.3105C39.0788 19.1569 40.1042 20.1742 40.9668 21.3623C41.8294 22.5505 42.5049 23.8607 42.9932 25.293Z" fill="white"/>
</svg>
