<svg width="16" height="24" viewBox="0 0 16 24" fill="none" xmlns="http://www.w3.org/2000/svg">
<path d="M0.351644 0.273591C0.126208 0.452535 0 0.692753 0 0.942895C0 1.19304 0.126208 1.43325 0.351644 1.6122L12.9464 11.6297L0.351644 21.6452C0.126208 21.8242 0 22.0644 0 22.3145C0 22.5647 0.126208 22.8049 0.351644 22.9838C0.461221 23.0711 0.592234 23.1404 0.736949 23.1878C0.881664 23.2352 1.03715 23.2595 1.19423 23.2595C1.3513 23.2595 1.50679 23.2352 1.6515 23.1878C1.79622 23.1404 1.92723 23.0711 2.03681 22.9838L15.4302 12.3291C15.6655 12.142 15.7971 11.891 15.7971 11.6297C15.7971 11.3684 15.6655 11.1175 15.4302 10.9304L2.03681 0.275595C1.92723 0.188338 1.79622 0.118986 1.6515 0.0716305C1.50679 0.0242755 1.3513 -0.00012207 1.19423 -0.00012207C1.03715 -0.00012207 0.881664 0.0242755 0.736949 0.0716305C0.592234 0.118986 0.461221 0.188338 0.351644 0.275595V0.273591Z" fill="white"/>
</svg>
