<svg width="35" height="35" viewBox="0 0 35 35" fill="none" xmlns="http://www.w3.org/2000/svg">
<path d="M4.9036 25.1928C6.20411 25.1928 7.45136 25.7094 8.37097 26.629C9.29057 27.5486 9.8072 28.7959 9.8072 30.0964C9.8072 32.7506 7.60283 35 4.9036 35C2.24936 35 0 32.7506 0 30.0964C0 28.7959 0.516628 27.5486 1.43623 26.629C2.35583 25.7094 3.60308 25.1928 4.9036 25.1928ZM0 0C9.28258 0 18.185 3.68749 24.7487 10.2513C31.3125 16.815 35 25.7174 35 35H28.6343C28.6343 27.4057 25.6175 20.1225 20.2475 14.7525C14.8775 9.3825 7.59429 6.36568 0 6.36568V0ZM0 12.7314C5.90601 12.7314 11.5701 15.0775 15.7463 19.2537C19.9225 23.4299 22.2686 29.094 22.2686 35H15.903C15.903 30.7823 14.2275 26.7373 11.2451 23.7549C8.26271 20.7725 4.21773 19.097 0 19.097V12.7314Z" fill="white"/>
</svg>
