<svg width="60" height="60" viewBox="0 0 60 60" fill="none" xmlns="http://www.w3.org/2000/svg">
<path d="M18.9521 38.9434C19.5377 38.3578 20.487 38.3579 21.0725 38.9435C21.6578 39.529 21.6577 40.4781 21.0723 41.0635L9.58291 52.5529C8.99737 53.1384 8.048 53.1383 7.46256 52.5527C6.87727 51.9672 6.87735 51.0181 7.46275 50.4327L18.9521 38.9434Z" stroke="white" stroke-width="2"/>
<path d="M15 25C15 36.0457 23.9543 45 35 45C46.0457 45 55 36.0457 55 25C55 13.9543 46.0457 5 35 5C23.9543 5 15 13.9543 15 25Z" fill="white"/>
<path d="M5.66211 51.4313L15.825 41.2695L18.6528 44.0963L8.48999 54.2591L5.66211 51.4313Z" stroke="white"/>
<path d="M18.75 25C18.75 33.9746 26.0254 41.25 35 41.25C43.9746 41.25 51.25 33.9746 51.25 25C51.25 16.0254 43.9746 8.75 35 8.75C26.0254 8.75 18.75 16.0254 18.75 25Z" fill="#2A3349"/>
<path d="M42.25 33.625C44.75 31.5 46.25 28.375 46.25 25C46.25 21.625 44.75 18.5 42.25 16.375C41.75 15.875 40.875 16 40.5 16.5C40 17 40.125 17.875 40.625 18.25C42.625 20 43.75 22.375 43.75 25C43.75 27.625 42.625 30 40.625 31.75C40.375 32 40.125 32.375 40.125 32.75C40.125 33 40.25 33.375 40.375 33.5C40.875 34 41.75 34 42.25 33.625Z" fill="white"/>
</svg>
