<svg width="51" height="50" viewBox="0 0 51 50" fill="none" xmlns="http://www.w3.org/2000/svg">
<path d="M22.6963 6.25V3.125C22.6963 2.5034 22.9432 1.90726 23.3828 1.46772C23.8223 1.02818 24.4184 0.78125 25.04 0.78125C25.6616 0.78125 26.2578 1.02818 26.6973 1.46772C27.1369 1.90726 27.3838 2.5034 27.3838 3.125V6.25C27.3838 6.8716 27.1369 7.46774 26.6973 7.90728C26.2578 8.34682 25.6616 8.59375 25.04 8.59375C24.4184 8.59375 23.8223 8.34682 23.3828 7.90728C22.9432 7.46774 22.6963 6.8716 22.6963 6.25ZM38.3213 25C38.3213 27.6268 37.5424 30.1946 36.083 32.3787C34.6236 34.5628 32.5494 36.265 30.1226 37.2703C27.6957 38.2755 25.0253 38.5385 22.449 38.0261C19.8727 37.5136 17.5062 36.2487 15.6488 34.3913C13.7914 32.5338 12.5264 30.1674 12.014 27.591C11.5015 25.0147 11.7645 22.3443 12.7698 19.9175C13.775 17.4907 15.4773 15.4164 17.6614 13.957C19.8455 12.4977 22.4133 11.7188 25.04 11.7188C28.5613 11.7224 31.9374 13.1228 34.4273 15.6127C36.9172 18.1027 38.3177 21.4787 38.3213 25ZM33.6338 25C33.6338 23.3003 33.1298 21.6388 32.1855 20.2256C31.2412 18.8123 29.899 17.7109 28.3287 17.0604C26.7584 16.41 25.0305 16.2398 23.3635 16.5714C21.6965 16.903 20.1652 17.7214 18.9633 18.9233C17.7615 20.1252 16.943 21.6564 16.6114 23.3234C16.2798 24.9905 16.45 26.7184 17.1005 28.2887C17.7509 29.859 18.8524 31.2011 20.2656 32.1454C21.6788 33.0897 23.3404 33.5938 25.04 33.5938C27.3184 33.5912 29.5028 32.6849 31.1139 31.0738C32.725 29.4628 33.6312 27.2784 33.6338 25ZM10.1006 13.377C10.3186 13.595 10.5774 13.7679 10.8623 13.8859C11.1471 14.0039 11.4524 14.0646 11.7607 14.0646C12.0691 14.0646 12.3744 14.0039 12.6592 13.8859C12.9441 13.7679 13.2029 13.595 13.4209 13.377C13.6389 13.1589 13.8119 12.9001 13.9298 12.6153C14.0478 12.3304 14.1086 12.0251 14.1086 11.7168C14.1086 11.4085 14.0478 11.1032 13.9298 10.8183C13.8119 10.5335 13.6389 10.2747 13.4209 10.0566L11.0771 7.71289C10.6368 7.27259 10.0397 7.02523 9.41699 7.02523C8.79431 7.02523 8.19714 7.27259 7.75684 7.71289C7.31653 8.15319 7.06918 8.75037 7.06918 9.37305C7.06918 9.99573 7.31653 10.5929 7.75684 11.0332L10.1006 13.377ZM10.1006 36.6191L7.75684 38.9629C7.53882 39.1809 7.36588 39.4397 7.24789 39.7246C7.1299 40.0094 7.06918 40.3147 7.06918 40.623C7.06918 40.9314 7.1299 41.2367 7.24789 41.5215C7.36588 41.8064 7.53882 42.0652 7.75684 42.2832C8.19714 42.7235 8.79431 42.9709 9.41699 42.9709C9.72531 42.9709 10.0306 42.9101 10.3155 42.7921C10.6003 42.6742 10.8591 42.5012 11.0771 42.2832L13.4209 39.9395C13.8612 39.4992 14.1086 38.902 14.1086 38.2793C14.1086 37.6566 13.8612 37.0594 13.4209 36.6191C12.9806 36.1788 12.3834 35.9315 11.7607 35.9315C11.1381 35.9315 10.5409 36.1788 10.1006 36.6191ZM38.3213 14.0625C38.6292 14.0627 38.9341 14.0023 39.2186 13.8847C39.5031 13.7671 39.7617 13.5945 39.9795 13.377L42.3232 11.0332C42.5413 10.8152 42.7142 10.5564 42.8322 10.2715C42.9502 9.98667 43.0109 9.68137 43.0109 9.37305C43.0109 9.06473 42.9502 8.75943 42.8322 8.47458C42.7142 8.18973 42.5413 7.93091 42.3232 7.71289C42.1052 7.49488 41.8464 7.32194 41.5616 7.20395C41.2767 7.08596 40.9714 7.02523 40.6631 7.02523C40.3548 7.02523 40.0495 7.08596 39.7646 7.20395C39.4798 7.32194 39.2209 7.49488 39.0029 7.71289L36.6592 10.0566C36.3294 10.3845 36.1047 10.8029 36.0134 11.2589C35.9222 11.7148 35.9686 12.1875 36.1468 12.617C36.325 13.0464 36.6269 13.4132 37.0141 13.6706C37.4013 13.928 37.8563 14.0644 38.3213 14.0625ZM39.9795 36.623C39.5392 36.1827 38.942 35.9354 38.3193 35.9354C37.6967 35.9354 37.0995 36.1827 36.6592 36.623C36.2189 37.0633 35.9715 37.6605 35.9715 38.2832C35.9715 38.9059 36.2189 39.5031 36.6592 39.9434L39.0029 42.2871C39.4432 42.7274 40.0404 42.9748 40.6631 42.9748C41.2858 42.9748 41.8829 42.7274 42.3232 42.2871C42.7635 41.8468 43.0109 41.2496 43.0109 40.627C43.0109 40.0043 42.7635 39.4071 42.3232 38.9668L39.9795 36.623ZM8.63379 25C8.63379 24.3784 8.38686 23.7823 7.94732 23.3427C7.50778 22.9032 6.91164 22.6562 6.29004 22.6562H3.16504C2.54344 22.6562 1.9473 22.9032 1.50776 23.3427C1.06822 23.7823 0.821289 24.3784 0.821289 25C0.821289 25.6216 1.06822 26.2177 1.50776 26.6573C1.9473 27.0968 2.54344 27.3438 3.16504 27.3438H6.29004C6.91164 27.3438 7.50778 27.0968 7.94732 26.6573C8.38686 26.2177 8.63379 25.6216 8.63379 25ZM25.04 41.4062C24.4184 41.4062 23.8223 41.6532 23.3828 42.0927C22.9432 42.5323 22.6963 43.1284 22.6963 43.75V46.875C22.6963 47.4966 22.9432 48.0927 23.3828 48.5323C23.8223 48.9718 24.4184 49.2188 25.04 49.2188C25.6616 49.2188 26.2578 48.9718 26.6973 48.5323C27.1369 48.0927 27.3838 47.4966 27.3838 46.875V43.75C27.3838 43.1284 27.1369 42.5323 26.6973 42.0927C26.2578 41.6532 25.6616 41.4062 25.04 41.4062ZM46.915 22.6562H43.79C43.1684 22.6562 42.5723 22.9032 42.1328 23.3427C41.6932 23.7823 41.4463 24.3784 41.4463 25C41.4463 25.6216 41.6932 26.2177 42.1328 26.6573C42.5723 27.0968 43.1684 27.3438 43.79 27.3438H46.915C47.5366 27.3438 48.1328 27.0968 48.5723 26.6573C49.0119 26.2177 49.2588 25.6216 49.2588 25C49.2588 24.3784 49.0119 23.7823 48.5723 23.3427C48.1328 22.9032 47.5366 22.6562 46.915 22.6562Z" fill="white"/>
</svg>
