<svg width="50" height="50" viewBox="0 0 50 50" fill="none" xmlns="http://www.w3.org/2000/svg">
<path d="M27.0833 10.4167C27.0833 9.86417 26.8638 9.33427 26.4731 8.94357C26.0824 8.55287 25.5525 8.33337 25 8.33337C24.4474 8.33337 23.9175 8.55287 23.5268 8.94357C23.1361 9.33427 22.9166 9.86417 22.9166 10.4167V12.5C22.9166 13.0526 23.1361 13.5825 23.5268 13.9732C23.9175 14.3639 24.4474 14.5834 25 14.5834C25.5525 14.5834 26.0824 14.3639 26.4731 13.9732C26.8638 13.5825 27.0833 13.0526 27.0833 12.5V10.4167ZM18.8083 39.5834H6.24996C5.69743 39.5834 5.16752 39.3639 4.77682 38.9732C4.38612 38.5825 4.16663 38.0526 4.16663 37.5C4.16663 36.9475 4.38612 36.4176 4.77682 36.0269C5.16752 35.6362 5.69743 35.4167 6.24996 35.4167H14.1729C13.0765 33.5164 12.4995 31.361 12.5 29.1671C12.5004 26.9732 13.0783 24.8181 14.1755 22.9182C15.2727 21.0184 16.8507 19.4408 18.7507 18.344C20.6508 17.2472 22.8061 16.6698 25 16.6698C27.1939 16.6698 29.3491 17.2472 31.2492 18.344C33.1493 19.4408 34.7272 21.0184 35.8244 22.9182C36.9216 24.8181 37.4995 26.9732 37.5 29.1671C37.5004 31.361 36.9235 33.5164 35.827 35.4167H43.75C44.3025 35.4167 44.8324 35.6362 45.2231 36.0269C45.6138 36.4176 45.8333 36.9475 45.8333 37.5C45.8333 38.0526 45.6138 38.5825 45.2231 38.9732C44.8324 39.3639 44.3025 39.5834 43.75 39.5834H18.8083ZM25 20.8334C23.3072 20.8333 21.6546 21.3487 20.262 22.3109C18.8694 23.2732 17.8029 24.6368 17.2044 26.2202C16.6059 27.8036 16.5038 29.5317 16.9116 31.1745C17.3194 32.8174 18.2179 34.2971 19.4875 35.4167H30.5125C31.782 34.2971 32.6805 32.8174 33.0883 31.1745C33.4962 29.5317 33.394 27.8036 32.7955 26.2202C32.197 24.6368 31.1305 23.2732 29.7379 22.3109C28.3453 21.3487 26.6927 20.8333 25 20.8334ZM39.7312 17.3813L38.2583 18.8542C38.0661 19.0532 37.8362 19.2119 37.5821 19.3211C37.3279 19.4303 37.0545 19.4877 36.7779 19.4901C36.5013 19.4925 36.2269 19.4398 35.9709 19.3351C35.7149 19.2303 35.4822 19.0756 35.2866 18.88C35.091 18.6844 34.9363 18.4518 34.8316 18.1958C34.7268 17.9397 34.6741 17.6654 34.6765 17.3888C34.6789 17.1122 34.7364 16.8388 34.8456 16.5846C34.9548 16.3304 35.1135 16.1006 35.3125 15.9084L36.7854 14.4355C36.9776 14.2365 37.2074 14.0778 37.4616 13.9686C37.7158 13.8594 37.9892 13.8019 38.2658 13.7995C38.5424 13.7971 38.8167 13.8498 39.0728 13.9546C39.3288 14.0593 39.5614 14.214 39.757 14.4096C39.9526 14.6052 40.1073 14.8379 40.2121 15.0939C40.3168 15.3499 40.3696 15.6243 40.3672 15.9009C40.3647 16.1775 40.3073 16.4509 40.1981 16.705C40.0889 16.9592 39.9302 17.1891 39.7312 17.3813Z" fill="white"/>
<path d="M8.33329 31.2501C8.88583 31.2501 9.41573 31.0306 9.80643 30.6399C10.1971 30.2492 10.4166 29.7193 10.4166 29.1668C10.4166 28.6142 10.1971 28.0843 9.80643 27.6936C9.41573 27.3029 8.88583 27.0834 8.33329 27.0834H6.24996C5.69743 27.0834 5.16752 27.3029 4.77682 27.6936C4.38612 28.0843 4.16663 28.6142 4.16663 29.1668C4.16663 29.7193 4.38612 30.2492 4.77682 30.6399C5.16752 31.0306 5.69743 31.2501 6.24996 31.2501H8.33329ZM45.8333 29.1668C45.8333 29.7193 45.6138 30.2492 45.2231 30.6399C44.8324 31.0306 44.3025 31.2501 43.75 31.2501H41.6666C41.1141 31.2501 40.5842 31.0306 40.1935 30.6399C39.8028 30.2492 39.5833 29.7193 39.5833 29.1668C39.5833 28.6142 39.8028 28.0843 40.1935 27.6936C40.5842 27.3029 41.1141 27.0834 41.6666 27.0834H43.75C44.3025 27.0834 44.8324 27.3029 45.2231 27.6936C45.6138 28.0843 45.8333 28.6142 45.8333 29.1668ZM11.7416 18.8543C12.1345 19.2338 12.6608 19.4437 13.207 19.439C13.7533 19.4342 14.2758 19.2151 14.6621 18.8289C15.0483 18.4426 15.2675 17.9201 15.2722 17.3738C15.2769 16.8276 15.067 16.3013 14.6875 15.9084L13.2145 14.4355C13.0234 14.232 12.7934 14.069 12.5381 13.9561C12.2827 13.8433 12.0073 13.7829 11.7282 13.7786C11.4491 13.7742 11.1719 13.826 10.9132 13.9309C10.6545 14.0358 10.4195 14.1916 10.2222 14.389C10.0249 14.5865 9.86925 14.8216 9.76457 15.0804C9.65988 15.3392 9.60827 15.6164 9.6128 15.8955C9.61734 16.1746 9.67792 16.45 9.79095 16.7052C9.90398 16.9605 10.0672 17.1904 10.2708 17.3813L11.7416 18.8543Z" fill="white"/>
</svg>
