<svg width="35" height="29" viewBox="0 0 35 29" fill="none" xmlns="http://www.w3.org/2000/svg">
<path d="M35 3.34608C33.7118 3.93164 32.3231 4.31644 30.8843 4.50048C32.3566 3.61377 33.4943 2.20841 34.0296 0.518642C32.641 1.35516 31.1018 1.94073 29.479 2.27534C28.1573 0.83652 26.3002 0 24.1922 0C20.2605 0 17.0483 3.21224 17.0483 7.17734C17.0483 7.74618 17.1152 8.29828 17.2323 8.81692C11.2763 8.51578 5.97275 5.65488 2.44264 1.3217C1.82361 2.37572 1.47228 3.61377 1.47228 4.91874C1.47228 7.41157 2.72706 9.61998 4.66778 10.8748C3.47992 10.8748 2.37572 10.5402 1.40535 10.0382V10.0884C1.40535 13.5684 3.88145 16.4794 7.16061 17.1319C6.10781 17.42 5.00255 17.4601 3.93164 17.249C4.38605 18.6753 5.27599 19.9232 6.47637 20.8175C7.67674 21.7118 9.12718 22.2074 10.6238 22.2347C8.08686 24.2431 4.94215 25.3287 1.7065 25.3131C1.13767 25.3131 0.568834 25.2796 0 25.2127C3.17878 27.2538 6.95985 28.4417 11.0086 28.4417C24.1922 28.4417 31.4364 17.5 31.4364 8.01386C31.4364 7.69599 31.4364 7.39484 31.4197 7.07696C32.825 6.07314 34.0296 4.80163 35 3.34608Z" fill="white"/>
</svg>
